<svg width="24" height="24" viewBox="0 0 24 24" fill="none" xmlns="http://www.w3.org/2000/svg">
<style>
	rect {
		fill: black;
	}
	.main {
		fill: white;
	}
	@media (prefers-color-scheme: dark) {
	rect {
			fill: white;
		}
		.main {
			fill: black;
		}
  }
</style>
<rect width="24" height="24"/>
<path class="main" d="M18.3393 16.02C18.6164 16.02 18.7897 15.72 18.6511 15.48L12.3118 4.50002C12.1732 4.26002 11.8268 4.26002 11.6882 4.50002L8.6225 9.81005C8.55819 9.92143 8.55819 10.0587 8.6225 10.1701L11.8961 15.84C11.9604 15.9514 12.0792 16.02 12.2078 16.02H18.3393Z" fill="white"/>
<path class="main" d="M9.81969 16.02C10.0968 16.02 10.27 15.72 10.1315 15.48L8.05197 11.8782C7.9134 11.6382 7.567 11.6382 7.42843 11.8782L5.34894 15.48C5.21038 15.72 5.38358 16.02 5.66071 16.02H9.81969Z" fill="white"/>
</svg>
