<svg width="538" height="62" viewBox="0 0 538 62" fill="none" xmlns="http://www.w3.org/2000/svg">
<path fill-rule="evenodd" clip-rule="evenodd" d="M274.758 1.74475C271.336 2.5454 267.571 3.55773 266.39 3.99445C265.21 4.43184 261.746 5.49225 258.692 6.35033C253.413 7.83344 244.194 10.8638 241.381 12.0397C240.663 12.3395 237.282 13.5308 233.869 14.6867C230.456 15.8426 227.212 17.0312 226.662 17.3277C226.111 17.6249 224.682 18.0877 223.487 18.3554C220.238 19.0853 214.272 21.9253 214.272 22.7426C214.272 23.1366 213.959 23.2608 213.577 23.0198C212.972 22.6378 207.404 24.3399 203.493 26.1022C202.775 26.426 201.378 26.9903 200.39 27.3562C199.403 27.7215 198.594 28.3292 198.594 28.7051C198.594 29.0817 197.779 29.3896 196.783 29.3896C195.161 29.3896 186.835 32.3204 183.777 33.9685C181.718 35.0776 172.826 38.8892 171.993 39.0201C171.554 39.0889 170.991 39.354 170.741 39.6091C170.492 39.8648 169.903 40.0738 169.434 40.0738C168.964 40.0738 167.029 40.807 165.133 41.7025C160.228 44.0203 156.565 45.5983 155.807 45.7205C155.447 45.7786 154.566 46.053 153.847 46.3308C153.128 46.6086 150.924 47.444 148.948 48.1872C146.972 48.9311 144.767 49.7958 144.048 50.1097C139.123 52.2599 125.372 52.5223 121.838 50.5337C120.76 49.9274 119.385 49.4292 118.783 49.4266C117.573 49.4219 114.979 46.4143 114.979 45.0153C114.979 44.5272 114.465 43.842 113.836 43.4928C113.207 43.1436 111.958 41.4147 111.06 39.6505C110.162 37.8862 108.633 35.0175 107.662 33.276C106.692 31.5344 105.562 28.8206 105.152 27.2454C104.742 25.6701 104.037 23.9306 103.586 23.3797C102.719 22.3199 101.842 20.3447 101.528 18.7441C101.425 18.2145 99.7791 16.3027 97.871 14.4957C94.4258 11.2324 94.3689 11.2083 89.503 11.0113C86.8084 10.9025 84.3097 11.0447 83.9504 11.3279C83.5911 11.611 82.2213 12.011 80.9057 12.2173C77.8596 12.6948 65.9863 17.4179 65.9863 18.1518C65.9863 18.4563 65.2599 18.7053 64.3722 18.7053C63.4838 18.7053 61.059 19.4793 58.983 20.4255C56.9063 21.3717 52.6792 23.174 49.5894 24.4308C44.8998 26.3372 37.0446 30.2637 22.2193 38.1126C20.9618 38.7784 19.1373 40.0925 18.1653 41.0341C17.1926 41.975 16.1298 42.7449 15.8038 42.7449C15.4772 42.7449 14.4961 43.3185 13.624 44.0203C12.2692 45.1095 11.5722 45.2063 8.83442 44.6834C5.75767 44.0958 5.55778 44.1532 3.79991 46.1205C2.55549 47.5127 1.96888 48.8883 1.96888 50.4115C1.96888 51.6442 1.46784 53.546 0.855104 54.6365C-0.224701 56.5603 -0.210331 56.6925 1.34503 59.0264C3.77312 62.6704 4.41787 62.4553 11.7126 55.5633C14.8547 52.5944 16.9934 51.7591 16.9934 53.5006C16.9934 53.8285 17.4343 54.0969 17.9732 54.0969C19.1373 54.0969 19.2392 53.321 18.213 52.2719C17.1632 51.1988 17.838 49.8907 20.0172 48.7728C21.0487 48.2439 22.3336 47.4533 22.8725 47.0166C23.4115 46.5799 25.9101 45.1175 28.4251 43.7672C30.9401 42.4164 33.7326 40.8892 34.6309 40.3723C38.0662 38.3964 49.0407 33.3962 49.9408 33.3962C50.4601 33.3962 51.0526 33.1191 51.2571 32.7798C51.4622 32.4406 52.5087 31.9658 53.582 31.7248C54.6559 31.4837 55.5345 31.0103 55.5345 30.6724C55.5345 30.3338 55.9918 30.0573 56.551 30.0573C57.1101 30.0573 59.2456 29.2059 61.2974 28.1656C63.3486 27.1252 65.8942 26.0514 66.9551 25.7796C68.016 25.5072 70.3631 24.5944 72.1712 23.751C74.9677 22.4462 80.063 20.7153 86.063 19.0319C90.8741 17.6816 96.0347 19.335 96.036 22.2265C96.0367 23.0445 96.7716 24.5863 97.6691 25.6541C98.583 26.7399 99.3016 28.4307 99.3016 29.4938C99.3016 30.5381 99.5955 31.3929 99.9548 31.3929C100.314 31.3929 100.608 31.9431 100.608 32.6156C100.608 33.2873 101.342 35.316 102.239 37.123C103.135 38.9293 103.87 40.6575 103.872 40.9633C103.873 41.2685 104.976 42.9125 106.324 44.6166C107.671 46.3201 109.361 48.465 110.08 49.3825C112.232 52.129 117.865 57.4117 118.656 57.4237C119.061 57.4304 119.728 57.8504 120.14 58.3566C121.77 60.3639 133.011 61.4998 139.802 60.3432C142.17 59.9405 150.106 57.5346 151.207 56.8862C151.55 56.6838 152.463 56.4488 153.234 56.3647C154.005 56.2812 157.398 55.0198 160.774 53.5634C164.15 52.1063 167.647 50.6933 168.545 50.4235C169.443 50.1531 170.619 49.5688 171.158 49.1241C171.697 48.68 173.608 47.8466 175.404 47.2724C177.2 46.6981 182.933 44.443 188.142 42.2614C193.352 40.0798 200.113 37.3059 203.167 36.0973C206.221 34.8886 208.999 33.6359 209.34 33.314C209.681 32.9922 210.416 32.7297 210.973 32.7318C211.83 32.7344 224.861 27.8631 228.97 26.004C229.688 25.6788 232.602 24.6518 235.443 23.7209C238.285 22.7907 240.974 21.7223 241.417 21.3457C241.861 20.9697 242.475 20.72 242.782 20.7914C243.089 20.8622 243.782 20.748 244.321 20.5377C244.86 20.3267 250.004 18.5978 255.752 16.6954C261.501 14.7929 267.17 12.8136 268.349 12.2981C269.529 11.7819 271.2 11.3599 272.063 11.3599C272.925 11.3599 274.393 11.0641 275.323 10.7022C278.122 9.61437 285.556 8.60137 287.514 9.04076C290.716 9.75927 292.856 15.5021 292.814 23.2648C292.809 24.2465 293.102 25.4251 293.466 25.8838C293.829 26.3432 293.927 26.7185 293.683 26.7185C293.439 26.7185 293.697 27.3863 294.256 28.203C294.815 29.019 295.273 30.3799 295.273 31.2266C295.273 33.4837 298.758 40.1466 300.949 42.0771C304.887 45.5475 307.328 46.3428 313.92 46.3048C317.764 46.2827 320.432 45.9622 321.035 45.4514C321.565 45.0013 322.237 44.7836 322.527 44.9666C323.06 45.3038 333.787 42.803 337.407 41.4982C339.321 40.8077 349.174 37.5223 350.472 37.141C350.831 37.0355 352.301 36.7297 353.738 36.4606C355.175 36.1914 356.939 35.7227 357.658 35.4195C358.981 34.8606 366.091 33.0563 369.089 32.5187C369.988 32.3578 372.927 31.7435 375.622 31.1538C382.806 29.5826 384.779 29.4003 395.219 29.3448C404.124 29.2968 404.896 29.3969 408.121 31.0129C410.007 31.9578 411.55 33.1611 411.55 33.6867C411.55 34.2122 412.138 34.8325 412.857 35.0656C413.575 35.2986 414.163 35.7694 414.163 36.112C414.163 36.4545 414.587 36.735 415.106 36.735C415.624 36.735 416.435 37.2986 416.907 37.9884C417.637 39.0528 419.917 41.1169 424.615 44.9652C427.138 47.032 431.036 48.905 435.615 50.2513C440.033 51.5501 442.188 51.7243 454.011 51.7397C461.376 51.7484 473.281 51.4966 480.467 51.1794C487.652 50.8623 496.618 50.5624 500.391 50.513C504.163 50.4643 507.602 50.1905 508.034 49.904C508.465 49.6182 509.641 49.5428 510.647 49.7364C511.652 49.9294 514.68 50.2626 517.375 50.4763C525.253 51.1007 526.65 51.2763 530.44 52.117C534.452 53.0071 537.625 52.2532 537.625 50.4102C537.625 48.8256 534.622 46.0837 532.886 46.0837C532.043 46.0837 531.069 45.7919 530.719 45.4347C530.37 45.0781 528.327 44.6253 526.179 44.4297C524.031 44.2333 520.952 43.8006 519.336 43.4681C516.108 42.8043 484.878 43.0287 472.955 43.802C456.293 44.8824 438.263 44.1339 434.668 42.2127C433.989 41.8501 432.699 41.2277 431.8 40.8298C428.776 39.4895 423.689 36.2328 423.443 35.4789C423.309 35.0683 422.803 34.7317 422.318 34.7317C421.833 34.7317 421.25 34.1307 421.022 33.3962C420.794 32.6616 420.226 32.0606 419.761 32.0606C419.294 32.0606 418.099 30.8587 417.103 29.3896C415.88 27.5859 414.805 26.7185 413.791 26.7185C412.887 26.7185 412.133 26.2104 411.894 25.4397C411.27 23.4304 400.218 20.334 394.566 20.5851C393.668 20.6245 391.735 20.6579 390.27 20.6585C387.313 20.6592 374.49 22.3046 369.416 23.3336C367.62 23.6982 363.504 24.7853 360.271 25.7503C357.037 26.7145 353.216 27.7435 351.779 28.036C349.055 28.5903 340.19 31.3094 335.121 33.1444C333.504 33.7301 331.594 34.2937 330.875 34.3978C329.177 34.6436 321.918 36.7851 321.091 37.2839C320.74 37.4956 317.567 37.7901 314.04 37.9383C305.941 38.2789 304.074 37.5804 302.398 33.5852C301.088 30.46 299.667 22.8802 300.22 21.9647C300.404 21.6622 300.129 20.7293 299.61 19.8926C299.09 19.0559 298.462 17.0192 298.214 15.3665C297.965 13.7138 297.202 11.3679 296.518 10.1533C295.833 8.93859 295.273 7.38403 295.273 6.6989C295.273 4.91129 292.15 1.3294 290.988 1.78482C290.462 1.99182 289.552 1.7541 288.966 1.25728C287.382 -0.086264 281.766 0.106052 274.758 1.74475ZM8.17465 48.7548C7.52468 49.4893 6.74145 50.0903 6.43508 50.0903C6.12805 50.0903 6.24433 49.4893 6.6931 48.7548C7.14188 48.0202 7.92512 47.4193 8.43334 47.4193C9.14341 47.4193 9.08331 47.7278 8.17465 48.7548Z" fill="white"/>
</svg>
