<svg width="38" height="37" viewBox="0 0 38 37" fill="none" xmlns="http://www.w3.org/2000/svg">
<path fill-rule="evenodd" clip-rule="evenodd" d="M12.7111 16.262C12.4205 14.7569 12.2684 13.2025 12.2684 11.6126V0.702393H36.6558V36C30.7502 36 25.3349 33.9009 21.1153 30.408C16.9056 33.2125 10.1554 35.8783 2 34.3955C4.24621 33.4329 12.9102 27.6569 12.5893 16.105C12.6282 16.1585 12.6688 16.2108 12.7111 16.262Z" fill="#278EFF"/>
<path d="M12.7111 16.262L12.3256 16.5804L13.202 16.1672L12.7111 16.262ZM12.2684 0.702393V0.202393H11.7684V0.702393H12.2684ZM36.6558 0.702393H37.1558V0.202393H36.6558V0.702393ZM36.6558 36V36.5H37.1558V36H36.6558ZM21.1153 30.408L21.4341 30.0229L21.1476 29.7857L20.8381 29.9919L21.1153 30.408ZM2 34.3955L1.80304 33.936L0.276214 34.5903L1.91056 34.8875L2 34.3955ZM12.5893 16.105L12.9936 15.8109L12.0447 14.5061L12.0895 16.1189L12.5893 16.105ZM11.7684 11.6126C11.7684 13.2344 11.9236 14.8206 12.2201 16.3567L13.202 16.1672C12.9175 14.6932 12.7684 13.1705 12.7684 11.6126H11.7684ZM11.7684 0.702393V11.6126H12.7684V0.702393H11.7684ZM36.6558 0.202393H12.2684V1.20239H36.6558V0.202393ZM37.1558 36V0.702393H36.1558V36H37.1558ZM20.7965 30.7932C25.1024 34.3575 30.6296 36.5 36.6558 36.5V35.5C30.8709 35.5 25.5674 33.4442 21.4341 30.0229L20.7965 30.7932ZM1.91056 34.8875C10.2252 36.3992 17.1053 33.6802 21.3925 30.8242L20.8381 29.9919C16.7058 32.7448 10.0856 35.3574 2.08944 33.9036L1.91056 34.8875ZM12.0895 16.1189C12.2461 21.7568 10.213 25.9763 7.86687 28.9089C5.51094 31.8538 2.84955 33.4875 1.80304 33.936L2.19696 34.8551C3.39666 34.341 6.19035 32.6053 8.64773 29.5336C11.1149 26.4496 13.2534 22.0051 13.0891 16.0911L12.0895 16.1189ZM13.0965 15.9435C13.0607 15.9002 13.0264 15.856 12.9936 15.8109L12.1849 16.3991C12.23 16.4611 12.2769 16.5215 12.3256 16.5804L13.0965 15.9435Z" fill="#278EFF"/>
</svg>
